<svg width="188" height="57" viewBox="0 0 188 57" fill="none" xmlns="http://www.w3.org/2000/svg">
<g id="Group 13">
<foreignObject x="-9.2" y="-9.2" width="198.4" height="75.4"><div xmlns="http://www.w3.org/1999/xhtml" style="backdrop-filter:blur(4.6px);clip-path:url(#bgblur_0_111_6357_clip_path);height:100%;width:100%"></div></foreignObject><g id="Rectangle 73" filter="url(#filter0_i_111_6357)" data-figma-bg-blur-radius="9.2">
<rect y="4.76837e-07" width="180" height="57" fill="#555DEF" fill-opacity="0.01"/>
</g>
<g id="Union" filter="url(#filter1_i_111_6357)">
<path d="M180 18.1484L188 23.1875L180 28.2256V57H0V4.76837e-07H180V18.1484Z" fill="#555DEF" fill-opacity="0.39"/>
</g>
<path id="&#230;&#136;&#145;&#230;&#152;&#175;&#229;&#176;&#143;&#229;&#163;&#185;" d="M19.264 9.712L20.416 8.928C20.7147 9.17333 21.024 9.456 21.344 9.776C21.664 10.0853 21.9627 10.4 22.24 10.72C22.5173 11.0293 22.7413 11.3067 22.912 11.552L21.68 12.416C21.5307 12.16 21.3227 11.8773 21.056 11.568C20.8 11.248 20.512 10.928 20.192 10.608C19.8827 10.2773 19.5733 9.97867 19.264 9.712ZM8.848 13.152H23.184V14.576H8.848V13.152ZM8.576 17.76C9.216 17.6533 9.95733 17.52 10.8 17.36C11.6533 17.2 12.5547 17.0293 13.504 16.848C14.4533 16.6667 15.3973 16.48 16.336 16.288L16.448 17.664C15.584 17.856 14.704 18.048 13.808 18.24C12.9227 18.432 12.0693 18.6187 11.248 18.8C10.4267 18.9813 9.67467 19.1467 8.992 19.296L8.576 17.76ZM12.112 10.272H13.632V21.488C13.632 21.936 13.5733 22.2773 13.456 22.512C13.3493 22.7573 13.152 22.9387 12.864 23.056C12.576 23.184 12.2027 23.264 11.744 23.296C11.296 23.3387 10.7413 23.3547 10.08 23.344C10.0587 23.2053 10.016 23.0453 9.952 22.864C9.89867 22.6827 9.83467 22.496 9.76 22.304C9.68533 22.1227 9.61067 21.9627 9.536 21.824C10.016 21.8347 10.464 21.8453 10.88 21.856C11.3067 21.856 11.5893 21.8507 11.728 21.84C11.8773 21.8293 11.9787 21.8027 12.032 21.76C12.0853 21.7067 12.112 21.616 12.112 21.488V10.272ZM15.248 8.64L16.304 9.92C15.6533 10.1333 14.9333 10.3307 14.144 10.512C13.3547 10.6827 12.544 10.8373 11.712 10.976C10.8907 11.1147 10.0907 11.232 9.312 11.328C9.28 11.1467 9.22133 10.9333 9.136 10.688C9.05067 10.4427 8.96 10.2347 8.864 10.064C9.62133 9.94667 10.3893 9.81867 11.168 9.68C11.9573 9.53067 12.704 9.37067 13.408 9.2C14.112 9.01867 14.7253 8.832 15.248 8.64ZM16.848 8.624H18.432C18.4107 10.0107 18.4533 11.3547 18.56 12.656C18.6667 13.9573 18.816 15.168 19.008 16.288C19.2107 17.3973 19.4453 18.3733 19.712 19.216C19.9893 20.048 20.288 20.6987 20.608 21.168C20.928 21.6267 21.2587 21.856 21.6 21.856C21.8027 21.856 21.952 21.6427 22.048 21.216C22.1547 20.7787 22.2293 20.064 22.272 19.072C22.432 19.2427 22.6293 19.408 22.864 19.568C23.1093 19.728 23.3333 19.8453 23.536 19.92C23.4507 20.8267 23.328 21.5307 23.168 22.032C23.0187 22.544 22.8053 22.9013 22.528 23.104C22.2507 23.3067 21.8933 23.408 21.456 23.408C20.9227 23.408 20.4373 23.216 20 22.832C19.5733 22.448 19.1893 21.9147 18.848 21.232C18.5067 20.5387 18.2133 19.728 17.968 18.8C17.7227 17.872 17.5147 16.8587 17.344 15.76C17.184 14.6613 17.0613 13.5093 16.976 12.304C16.9013 11.088 16.8587 9.86133 16.848 8.624ZM21.184 15.232L22.528 15.792C21.9947 16.784 21.3547 17.712 20.608 18.576C19.872 19.44 19.056 20.2293 18.16 20.944C17.2747 21.648 16.3413 22.2613 15.36 22.784C15.2533 22.6027 15.104 22.3947 14.912 22.16C14.72 21.936 14.528 21.7387 14.336 21.568C15.2747 21.1307 16.176 20.5867 17.04 19.936C17.904 19.2853 18.6933 18.56 19.408 17.76C20.1227 16.96 20.7147 16.1173 21.184 15.232ZM24.928 15.456H39.104V16.8H24.928V15.456ZM32.064 18.32H38.064V19.648H32.064V18.32ZM31.392 16.096H32.912V22.096H31.392V16.096ZM28.544 18.672C28.8533 19.504 29.2853 20.1333 29.84 20.56C30.3947 20.9867 31.0667 21.2747 31.856 21.424C32.6453 21.5627 33.5413 21.632 34.544 21.632C34.6933 21.632 34.9227 21.632 35.232 21.632C35.552 21.632 35.9093 21.632 36.304 21.632C36.7093 21.632 37.1147 21.632 37.52 21.632C37.936 21.632 38.3147 21.632 38.656 21.632C39.008 21.6213 39.28 21.616 39.472 21.616C39.3973 21.7227 39.3227 21.8613 39.248 22.032C39.184 22.2133 39.1253 22.3947 39.072 22.576C39.0187 22.7573 38.976 22.9173 38.944 23.056H37.984H34.464C33.536 23.056 32.6987 23.0027 31.952 22.896C31.2053 22.7893 30.5387 22.592 29.952 22.304C29.376 22.0267 28.864 21.632 28.416 21.12C27.9787 20.608 27.6 19.9413 27.28 19.12L28.544 18.672ZM27.552 17.232L29.056 17.456C28.8 18.7787 28.384 19.936 27.808 20.928C27.232 21.92 26.5013 22.736 25.616 23.376C25.5413 23.2693 25.4347 23.1467 25.296 23.008C25.168 22.88 25.024 22.7467 24.864 22.608C24.7147 22.48 24.5867 22.3787 24.48 22.304C25.312 21.7813 25.9787 21.088 26.48 20.224C26.992 19.36 27.3493 18.3627 27.552 17.232ZM28 12.32V13.408H35.904V12.32H28ZM28 10.208V11.28H35.904V10.208H28ZM26.528 9.104H37.44V14.528H26.528V9.104ZM47.232 8.72H48.88V21.36C48.88 21.872 48.8107 22.2507 48.672 22.496C48.544 22.7413 48.3147 22.928 47.984 23.056C47.664 23.1733 47.2373 23.248 46.704 23.28C46.1707 23.3227 45.5253 23.344 44.768 23.344C44.736 23.1947 44.6827 23.024 44.608 22.832C44.544 22.6507 44.4693 22.464 44.384 22.272C44.3093 22.08 44.2293 21.9093 44.144 21.76C44.528 21.7813 44.896 21.7973 45.248 21.808C45.6107 21.808 45.9253 21.808 46.192 21.808C46.4693 21.7973 46.6667 21.792 46.784 21.792C46.944 21.7813 47.056 21.7493 47.12 21.696C47.1947 21.632 47.232 21.52 47.232 21.36V8.72ZM51.088 12.848L52.56 12.304C53.0187 13.0507 53.456 13.856 53.872 14.72C54.2987 15.5733 54.672 16.4107 54.992 17.232C55.3227 18.0533 55.552 18.7893 55.68 19.44L54.032 20.096C53.9147 19.456 53.7067 18.72 53.408 17.888C53.12 17.056 52.7733 16.2027 52.368 15.328C51.9627 14.4427 51.536 13.616 51.088 12.848ZM43.04 12.432L44.752 12.72C44.5813 13.5093 44.3627 14.3413 44.096 15.216C43.8293 16.0907 43.5147 16.928 43.152 17.728C42.7893 18.5173 42.3733 19.2107 41.904 19.808C41.7867 19.7227 41.6373 19.632 41.456 19.536C41.2853 19.4293 41.1093 19.3333 40.928 19.248C40.7467 19.152 40.5867 19.072 40.448 19.008C40.9067 18.4533 41.3067 17.8027 41.648 17.056C41.9893 16.2987 42.2773 15.5147 42.512 14.704C42.7467 13.8933 42.9227 13.136 43.04 12.432ZM56.96 9.52H71.088V10.672H56.96V9.52ZM56.8 21.68H71.248V22.896H56.8V21.68ZM58.272 11.584H69.776V12.672H58.272V11.584ZM59.424 15.312H68.48V16.288H59.424V15.312ZM57.2 13.424H70.784V16.176H69.328V14.544H58.608V16.176H57.2V13.424ZM63.2 8.496H64.736V12.288H63.2V8.496ZM60.432 18.08V19.28H67.408V18.08H60.432ZM58.992 17.072H68.928V20.288H58.992V17.072ZM60.384 20.496L61.76 20.24C61.92 20.464 62.0693 20.7147 62.208 20.992C62.3467 21.2693 62.448 21.52 62.512 21.744L61.088 22.048C61.0347 21.824 60.9387 21.568 60.8 21.28C60.672 20.992 60.5333 20.7307 60.384 20.496ZM66.144 20.208L67.664 20.512C67.504 20.832 67.3493 21.1467 67.2 21.456C67.0507 21.7547 66.912 22.016 66.784 22.24L65.424 21.968C65.4987 21.7973 65.584 21.6107 65.68 21.408C65.776 21.1947 65.8613 20.9867 65.936 20.784C66.0213 20.5707 66.0907 20.3787 66.144 20.208Z" fill="url(#paint0_linear_111_6357)"/>
<path id="&#230;&#156;&#137;&#228;&#187;&#187;&#228;&#189;&#149;&#233;&#151;&#174;&#233;&#162;&#152;&#233;&#131;&#189;&#229;&#143;&#175;&#228;&#187;&#165;&#230;&#137;&#190;&#230;&#136;&#145;&#229;&#147;&#166;~" d="M8.882 32.06H21.146V33.04H8.882V32.06ZM12.312 37.058H18.878V37.954H12.312V37.058ZM11.57 34.664H18.71V35.616H12.606V43.106H11.57V34.664ZM18.472 34.664H19.508V41.804C19.508 42.112 19.466 42.35 19.382 42.518C19.298 42.6953 19.1393 42.8307 18.906 42.924C18.6727 42.9987 18.3553 43.0407 17.954 43.05C17.562 43.0687 17.0673 43.078 16.47 43.078C16.442 42.938 16.3953 42.77 16.33 42.574C16.2647 42.378 16.1947 42.21 16.12 42.07C16.428 42.0793 16.7173 42.084 16.988 42.084C17.268 42.0933 17.5107 42.0933 17.716 42.084C17.9213 42.084 18.0707 42.084 18.164 42.084C18.2853 42.084 18.3647 42.0607 18.402 42.014C18.4487 41.9767 18.472 41.902 18.472 41.79V34.664ZM13.474 30.24L14.538 30.492C14.2207 31.5093 13.8193 32.5173 13.334 33.516C12.8487 34.5147 12.2653 35.448 11.584 36.316C10.9027 37.1747 10.1187 37.9213 9.232 38.556C9.18533 38.472 9.12 38.3833 9.036 38.29C8.952 38.1873 8.868 38.0893 8.784 37.996C8.7 37.8933 8.62533 37.8093 8.56 37.744C9.18533 37.3147 9.75467 36.8153 10.268 36.246C10.7907 35.6767 11.2573 35.0653 11.668 34.412C12.0787 33.7493 12.4333 33.068 12.732 32.368C13.0307 31.6587 13.278 30.9493 13.474 30.24ZM12.312 39.424H18.878V40.334H12.312V39.424ZM34.096 30.59L34.88 31.472C34.3667 31.6493 33.7927 31.8127 33.158 31.962C32.5327 32.1113 31.8747 32.2513 31.184 32.382C30.4933 32.5127 29.7933 32.6293 29.084 32.732C28.384 32.8347 27.698 32.9233 27.026 32.998C27.0073 32.8767 26.9653 32.732 26.9 32.564C26.8347 32.3867 26.774 32.2373 26.718 32.116C27.3713 32.032 28.0387 31.934 28.72 31.822C29.4107 31.71 30.0827 31.5887 30.736 31.458C31.3987 31.3273 32.0147 31.1873 32.584 31.038C33.1627 30.8887 33.6667 30.7393 34.096 30.59ZM26.256 36.232H35.44V37.24H26.256V36.232ZM26.802 41.566H35.216V42.574H26.802V41.566ZM30.414 32.13H31.478V41.846H30.414V32.13ZM24.604 33.964L25.64 32.928V32.942V43.12H24.604V33.964ZM26.13 30.24L27.138 30.562C26.8113 31.3833 26.424 32.186 25.976 32.97C25.5373 33.754 25.0613 34.4913 24.548 35.182C24.0347 35.8727 23.5027 36.484 22.952 37.016C22.9147 36.932 22.854 36.8247 22.77 36.694C22.6953 36.5633 22.616 36.4327 22.532 36.302C22.448 36.162 22.3733 36.05 22.308 35.966C22.812 35.5087 23.2973 34.9767 23.764 34.37C24.24 33.754 24.6787 33.096 25.08 32.396C25.4907 31.696 25.8407 30.9773 26.13 30.24ZM40.76 31.598H49.482V32.606H40.76V31.598ZM47.396 31.976H48.446V41.678C48.446 42.042 48.3947 42.3173 48.292 42.504C48.1893 42.6907 48.0073 42.8307 47.746 42.924C47.494 42.9987 47.1347 43.0453 46.668 43.064C46.2013 43.092 45.6227 43.106 44.932 43.106C44.9133 42.9473 44.8667 42.7653 44.792 42.56C44.7173 42.3547 44.638 42.1727 44.554 42.014C44.9273 42.0233 45.282 42.0327 45.618 42.042C45.954 42.0513 46.2433 42.0513 46.486 42.042C46.738 42.042 46.9153 42.0373 47.018 42.028C47.1673 42.028 47.2653 42.0047 47.312 41.958C47.368 41.902 47.396 41.804 47.396 41.664V31.976ZM41.166 34.58H42.16V40.404H41.166V34.58ZM41.628 34.58H45.562V39.424H41.628V38.5H44.582V35.518H41.628V34.58ZM39.738 30.254L40.718 30.548C40.438 31.332 40.1067 32.1067 39.724 32.872C39.3507 33.628 38.94 34.342 38.492 35.014C38.0533 35.686 37.596 36.288 37.12 36.82C37.0827 36.736 37.0267 36.6287 36.952 36.498C36.8867 36.3673 36.812 36.2367 36.728 36.106C36.6533 35.966 36.5833 35.8587 36.518 35.784C36.9567 35.3267 37.372 34.804 37.764 34.216C38.1653 33.6187 38.534 32.984 38.87 32.312C39.206 31.64 39.4953 30.954 39.738 30.254ZM38.422 33.908L39.444 32.872L39.458 32.886V43.106H38.422V33.908ZM51.302 33.39H52.338V43.12H51.302V33.39ZM51.456 30.926L52.212 30.422C52.4453 30.646 52.6973 30.898 52.968 31.178C53.2387 31.458 53.4953 31.7333 53.738 32.004C53.9807 32.2653 54.1813 32.494 54.34 32.69L53.542 33.278C53.3927 33.0727 53.1967 32.8347 52.954 32.564C52.7207 32.2933 52.4687 32.0133 52.198 31.724C51.9367 31.4347 51.6893 31.1687 51.456 30.926ZM54.97 31.024H62.362V32.018H54.97V31.024ZM61.648 31.024H62.698V41.65C62.698 41.9953 62.6513 42.252 62.558 42.42C62.474 42.5973 62.3247 42.7327 62.11 42.826C61.8767 42.91 61.5687 42.9613 61.186 42.98C60.8033 43.008 60.3273 43.022 59.758 43.022C59.7393 42.8633 59.6927 42.6813 59.618 42.476C59.5527 42.2707 59.4827 42.098 59.408 41.958C59.688 41.9673 59.9587 41.9767 60.22 41.986C60.4813 41.986 60.71 41.986 60.906 41.986C61.1113 41.9767 61.2513 41.972 61.326 41.972C61.4473 41.972 61.5313 41.9487 61.578 41.902C61.6247 41.8553 61.648 41.7713 61.648 41.65V31.024ZM55.04 34.496H59.422V39.648H55.04V38.696H58.4V35.448H55.04V34.496ZM54.508 34.496H55.474V40.558H54.508V34.496ZM66.464 33.39V34.454H69.32V33.39H66.464ZM66.464 31.598V32.648H69.32V31.598H66.464ZM65.512 30.828H70.3V35.224H65.512V30.828ZM64.686 36.26H71.014V37.086H64.686V36.26ZM70.986 30.884H77.37V31.738H70.986V30.884ZM67.528 36.54H68.438V41.874L67.528 41.328V36.54ZM67.948 38.584H70.762V39.396H67.948V38.584ZM73.674 31.178L74.738 31.374C74.598 31.738 74.4533 32.1067 74.304 32.48C74.164 32.844 74.0333 33.1567 73.912 33.418L73.058 33.222C73.17 32.9233 73.282 32.5827 73.394 32.2C73.5153 31.8173 73.6087 31.4767 73.674 31.178ZM66.352 39.228C66.5947 39.8253 66.9073 40.306 67.29 40.67C67.682 41.0247 68.1393 41.2953 68.662 41.482C69.194 41.6687 69.7867 41.7947 70.44 41.86C71.1027 41.916 71.826 41.944 72.61 41.944C72.7407 41.944 72.96 41.944 73.268 41.944C73.5853 41.944 73.9493 41.944 74.36 41.944C74.7707 41.9347 75.1813 41.93 75.592 41.93C76.012 41.93 76.39 41.93 76.726 41.93C77.0713 41.9207 77.3233 41.916 77.482 41.916C77.4073 42.0187 77.3327 42.1587 77.258 42.336C77.1833 42.5133 77.132 42.672 77.104 42.812H76.152H72.596C71.7187 42.812 70.916 42.77 70.188 42.686C69.4693 42.6113 68.8207 42.4573 68.242 42.224C67.6727 41.9907 67.178 41.6547 66.758 41.216C66.338 40.768 65.9833 40.18 65.694 39.452L66.352 39.228ZM71.56 33.096H76.698V38.934H75.774V33.894H72.442V38.99H71.56V33.096ZM65.736 37.772L66.632 37.828C66.576 38.9573 66.4453 39.9653 66.24 40.852C66.044 41.7293 65.708 42.476 65.232 43.092C65.1853 43.0453 65.1107 42.9893 65.008 42.924C64.9147 42.8587 64.8167 42.7933 64.714 42.728C64.6207 42.6627 64.5367 42.6113 64.462 42.574C64.9287 42.0327 65.246 41.3513 65.414 40.53C65.5913 39.7087 65.6987 38.7893 65.736 37.772ZM73.73 34.58H74.626C74.598 35.56 74.5327 36.4327 74.43 37.198C74.3367 37.9633 74.164 38.626 73.912 39.186C73.6693 39.746 73.31 40.2267 72.834 40.628C72.358 41.0293 71.7187 41.3607 70.916 41.622C70.8693 41.5193 70.7947 41.398 70.692 41.258C70.5987 41.118 70.5053 41.006 70.412 40.922C71.1493 40.698 71.7327 40.4087 72.162 40.054C72.6007 39.6993 72.9273 39.27 73.142 38.766C73.3567 38.262 73.5013 37.6647 73.576 36.974C73.66 36.2833 73.7113 35.4853 73.73 34.58ZM74.22 39.396L74.836 38.836C75.1253 39.032 75.4287 39.256 75.746 39.508C76.0633 39.7507 76.362 39.9933 76.642 40.236C76.9313 40.4787 77.1693 40.698 77.356 40.894L76.712 41.538C76.5347 41.342 76.306 41.118 76.026 40.866C75.746 40.614 75.4473 40.362 75.13 40.11C74.822 39.8487 74.5187 39.6107 74.22 39.396ZM79.246 31.864H84.146V32.802H79.246V31.864ZM80.716 41.342H84.65V42.224H80.716V41.342ZM80.716 39.018H84.664V39.858H80.716V39.018ZM78.602 34.482H85.84V35.42H78.602V34.482ZM81.402 30.352H82.382V35.07H81.402V30.352ZM85.112 30.716L86.064 31.01C85.2987 32.7553 84.3047 34.2953 83.082 35.63C81.8687 36.9553 80.492 38.0427 78.952 38.892C78.9147 38.8173 78.854 38.7287 78.77 38.626C78.6953 38.514 78.616 38.402 78.532 38.29C78.448 38.178 78.3687 38.094 78.294 38.038C79.8247 37.2727 81.1733 36.2693 82.34 35.028C83.5067 33.7867 84.4307 32.3493 85.112 30.716ZM81.038 36.778H84.608V37.646H81.038V43.05H80.086V37.394L80.66 36.778H81.038ZM84.202 36.778H85.21V42.854H84.202V36.778ZM86.442 31.038H90.614V32.032H87.478V43.12H86.442V31.038ZM90.362 31.038H90.558L90.726 30.996L91.482 31.472C91.1927 32.144 90.866 32.858 90.502 33.614C90.1473 34.3607 89.7973 35.0607 89.452 35.714C89.956 36.1433 90.3387 36.5587 90.6 36.96C90.8613 37.352 91.0433 37.7253 91.146 38.08C91.258 38.4347 91.314 38.78 91.314 39.116C91.314 39.5547 91.258 39.9327 91.146 40.25C91.0433 40.5673 90.8613 40.8053 90.6 40.964C90.3573 41.132 90.04 41.2393 89.648 41.286C89.4613 41.3047 89.2513 41.314 89.018 41.314C88.7847 41.314 88.556 41.3093 88.332 41.3C88.3227 41.1507 88.29 40.978 88.234 40.782C88.1873 40.586 88.1173 40.4133 88.024 40.264C88.2573 40.2827 88.4767 40.2967 88.682 40.306C88.8873 40.306 89.0647 40.3013 89.214 40.292C89.3447 40.292 89.466 40.278 89.578 40.25C89.69 40.222 89.788 40.1847 89.872 40.138C90.0307 40.0447 90.1427 39.9 90.208 39.704C90.2733 39.508 90.3013 39.284 90.292 39.032C90.292 38.584 90.1567 38.0987 89.886 37.576C89.6153 37.044 89.1113 36.47 88.374 35.854C88.5607 35.49 88.7473 35.1073 88.934 34.706C89.1207 34.2953 89.3027 33.8893 89.48 33.488C89.6573 33.0867 89.8207 32.704 89.97 32.34C90.1193 31.976 90.25 31.654 90.362 31.374V31.038ZM102.458 31.542H103.55V41.608C103.55 41.9813 103.494 42.266 103.382 42.462C103.279 42.6673 103.088 42.8167 102.808 42.91C102.537 43.0033 102.155 43.0547 101.66 43.064C101.175 43.0827 100.582 43.092 99.882 43.092C99.8633 42.9893 99.826 42.868 99.77 42.728C99.7233 42.5973 99.672 42.462 99.616 42.322C99.56 42.182 99.504 42.0607 99.448 41.958C99.8213 41.9767 100.185 41.9907 100.54 42C100.904 42 101.217 42 101.478 42C101.749 42 101.94 42 102.052 42C102.201 41.9813 102.304 41.9487 102.36 41.902C102.425 41.846 102.458 41.7433 102.458 41.594V31.542ZM94.212 34.342H95.234V40.698H94.212V34.342ZM94.646 34.342H99.952V39.578H94.646V38.57H98.916V35.35H94.646V34.342ZM92.784 31.234H105.272V32.284H92.784V31.234ZM111.11 32.438L112.048 31.99C112.356 32.326 112.655 32.6947 112.944 33.096C113.233 33.4973 113.495 33.894 113.728 34.286C113.961 34.6687 114.143 35.0233 114.274 35.35L113.266 35.882C113.145 35.5647 112.972 35.2053 112.748 34.804C112.524 34.3933 112.267 33.9827 111.978 33.572C111.689 33.1613 111.399 32.7833 111.11 32.438ZM106.504 40.502C106.98 40.3153 107.531 40.0913 108.156 39.83C108.791 39.5687 109.458 39.2887 110.158 38.99C110.867 38.682 111.572 38.3787 112.272 38.08L112.51 39.102C111.866 39.3913 111.208 39.6853 110.536 39.984C109.864 40.2827 109.215 40.572 108.59 40.852C107.965 41.1227 107.395 41.37 106.882 41.594L106.504 40.502ZM114.904 38.668L115.716 37.968C116.043 38.304 116.388 38.6587 116.752 39.032C117.125 39.4053 117.489 39.788 117.844 40.18C118.199 40.5627 118.53 40.9313 118.838 41.286C119.146 41.6407 119.398 41.9627 119.594 42.252L118.698 43.078C118.502 42.7887 118.259 42.462 117.97 42.098C117.681 41.734 117.359 41.356 117.004 40.964C116.659 40.5627 116.304 40.166 115.94 39.774C115.585 39.3727 115.24 39.004 114.904 38.668ZM116.836 30.954L117.984 31.066C117.807 32.69 117.555 34.1367 117.228 35.406C116.901 36.6753 116.463 37.8 115.912 38.78C115.371 39.7507 114.675 40.5953 113.826 41.314C112.986 42.0327 111.955 42.6487 110.732 43.162C110.685 43.0873 110.611 42.9893 110.508 42.868C110.405 42.756 110.298 42.644 110.186 42.532C110.074 42.42 109.976 42.3267 109.892 42.252C111.105 41.804 112.118 41.2533 112.93 40.6C113.751 39.9373 114.423 39.1487 114.946 38.234C115.469 37.31 115.875 36.2507 116.164 35.056C116.463 33.852 116.687 32.4847 116.836 30.954ZM108.198 30.996L109.276 30.954L109.528 40.208L108.45 40.25L108.198 30.996ZM120.476 37.646C120.896 37.5433 121.372 37.422 121.904 37.282C122.445 37.1327 123.015 36.974 123.612 36.806C124.209 36.638 124.807 36.4653 125.404 36.288L125.53 37.254C124.709 37.506 123.878 37.758 123.038 38.01C122.207 38.2527 121.456 38.472 120.784 38.668L120.476 37.646ZM120.644 33.068H125.376V34.062H120.644V33.068ZM122.646 30.24H123.668V41.79C123.668 42.0793 123.631 42.3033 123.556 42.462C123.481 42.6207 123.351 42.742 123.164 42.826C122.987 42.9007 122.744 42.9473 122.436 42.966C122.128 42.994 121.731 43.008 121.246 43.008C121.227 42.8773 121.185 42.7187 121.12 42.532C121.064 42.3453 121.003 42.182 120.938 42.042C121.265 42.0513 121.563 42.056 121.834 42.056C122.105 42.056 122.287 42.056 122.38 42.056C122.483 42.0467 122.553 42.0233 122.59 41.986C122.627 41.9487 122.646 41.8833 122.646 41.79V30.24ZM125.544 34.202L133.062 33.418L133.174 34.398L125.656 35.196L125.544 34.202ZM129.464 31.108L130.262 30.576C130.495 30.7627 130.733 30.9773 130.976 31.22C131.228 31.4627 131.461 31.7053 131.676 31.948C131.891 32.1813 132.063 32.3913 132.194 32.578L131.354 33.194C131.233 32.9887 131.065 32.7647 130.85 32.522C130.645 32.2793 130.421 32.032 130.178 31.78C129.935 31.528 129.697 31.304 129.464 31.108ZM127.434 30.282H128.498C128.545 31.542 128.629 32.7413 128.75 33.88C128.871 35.0093 129.03 36.05 129.226 37.002C129.422 37.9447 129.651 38.7707 129.912 39.48C130.183 40.1893 130.486 40.7493 130.822 41.16C131.167 41.5613 131.55 41.7807 131.97 41.818C132.157 41.8367 132.306 41.6547 132.418 41.272C132.539 40.8893 132.633 40.3107 132.698 39.536C132.773 39.6107 132.866 39.69 132.978 39.774C133.09 39.8487 133.202 39.9187 133.314 39.984C133.426 40.04 133.519 40.082 133.594 40.11C133.491 40.866 133.361 41.4633 133.202 41.902C133.053 42.3407 132.875 42.644 132.67 42.812C132.465 42.9893 132.245 43.0687 132.012 43.05C131.387 43.0033 130.836 42.7607 130.36 42.322C129.893 41.8833 129.487 41.2813 129.142 40.516C128.797 39.7507 128.507 38.8453 128.274 37.8C128.05 36.7547 127.868 35.5973 127.728 34.328C127.597 33.0587 127.499 31.71 127.434 30.282ZM131.606 35.49L132.474 36.008C132.054 36.9227 131.508 37.8093 130.836 38.668C130.164 39.5173 129.408 40.2873 128.568 40.978C127.737 41.6687 126.865 42.2193 125.95 42.63C125.857 42.49 125.731 42.3453 125.572 42.196C125.423 42.0467 125.278 41.9207 125.138 41.818C125.829 41.538 126.501 41.1787 127.154 40.74C127.807 40.292 128.414 39.788 128.974 39.228C129.534 38.668 130.038 38.0707 130.486 37.436C130.943 36.8013 131.317 36.1527 131.606 35.49ZM143.856 31.164L144.654 30.604C144.925 30.8373 145.205 31.094 145.494 31.374C145.783 31.654 146.054 31.934 146.306 32.214C146.558 32.4847 146.759 32.732 146.908 32.956L146.054 33.572C145.914 33.348 145.723 33.096 145.48 32.816C145.237 32.5267 144.971 32.2373 144.682 31.948C144.402 31.6587 144.127 31.3973 143.856 31.164ZM134.784 34.384H147.244V35.378H134.784V34.384ZM134.574 38.486C135.125 38.3833 135.769 38.2573 136.506 38.108C137.253 37.9587 138.037 37.8 138.858 37.632C139.689 37.4547 140.515 37.2773 141.336 37.1L141.42 38.038C140.655 38.2153 139.88 38.3973 139.096 38.584C138.321 38.7613 137.57 38.934 136.842 39.102C136.123 39.2607 135.47 39.41 134.882 39.55L134.574 38.486ZM137.78 31.668H138.83V41.762C138.83 42.1073 138.783 42.3687 138.69 42.546C138.606 42.7233 138.447 42.854 138.214 42.938C137.999 43.022 137.696 43.0733 137.304 43.092C136.921 43.12 136.441 43.134 135.862 43.134C135.843 43.0313 135.815 42.9147 135.778 42.784C135.741 42.6627 135.694 42.5367 135.638 42.406C135.582 42.2753 135.531 42.1633 135.484 42.07C135.932 42.0793 136.343 42.084 136.716 42.084C137.089 42.0933 137.337 42.0933 137.458 42.084C137.579 42.0747 137.663 42.0467 137.71 42C137.757 41.9627 137.78 41.8833 137.78 41.762V31.668ZM140.44 30.408L141.182 31.29C140.641 31.4767 140.029 31.6493 139.348 31.808C138.676 31.9573 137.981 32.0973 137.262 32.228C136.553 32.3587 135.862 32.4707 135.19 32.564C135.162 32.4427 135.115 32.298 135.05 32.13C134.994 31.9527 134.933 31.8033 134.868 31.682C135.521 31.5793 136.193 31.4627 136.884 31.332C137.575 31.192 138.228 31.0427 138.844 30.884C139.46 30.7253 139.992 30.5667 140.44 30.408ZM141.84 30.352H142.946C142.937 31.6307 142.979 32.858 143.072 34.034C143.175 35.2007 143.319 36.2787 143.506 37.268C143.693 38.248 143.912 39.102 144.164 39.83C144.425 40.5487 144.71 41.1087 145.018 41.51C145.326 41.902 145.648 42.098 145.984 42.098C146.18 42.098 146.325 41.9067 146.418 41.524C146.521 41.132 146.591 40.4833 146.628 39.578C146.74 39.69 146.88 39.802 147.048 39.914C147.216 40.0167 147.37 40.096 147.51 40.152C147.454 40.9267 147.365 41.5333 147.244 41.972C147.123 42.4107 146.955 42.7187 146.74 42.896C146.525 43.0733 146.241 43.162 145.886 43.162C145.438 43.162 145.023 43.0033 144.64 42.686C144.267 42.3687 143.931 41.9207 143.632 41.342C143.343 40.754 143.086 40.0633 142.862 39.27C142.647 38.4767 142.465 37.604 142.316 36.652C142.167 35.6907 142.055 34.678 141.98 33.614C141.905 32.55 141.859 31.4627 141.84 30.352ZM145.648 36.022L146.572 36.414C146.124 37.2727 145.573 38.0893 144.92 38.864C144.276 39.6293 143.562 40.3293 142.778 40.964C142.003 41.5987 141.182 42.14 140.314 42.588C140.23 42.4667 140.118 42.3267 139.978 42.168C139.847 42.0093 139.717 41.874 139.586 41.762C140.426 41.3607 141.229 40.866 141.994 40.278C142.759 39.6807 143.455 39.018 144.08 38.29C144.705 37.562 145.228 36.806 145.648 36.022ZM152.55 34.398H161.398V35.35H152.55V34.398ZM152.452 38.29C153.049 38.1593 153.773 38.0007 154.622 37.814C155.471 37.618 156.33 37.4173 157.198 37.212L157.296 38.108C156.484 38.3133 155.672 38.5187 154.86 38.724C154.048 38.9293 153.32 39.116 152.676 39.284L152.452 38.29ZM160.138 35.882L161.048 36.12C160.544 37.548 159.895 38.8453 159.102 40.012C158.309 41.1693 157.408 42.14 156.4 42.924C156.363 42.8587 156.302 42.7747 156.218 42.672C156.143 42.5787 156.059 42.4853 155.966 42.392C155.882 42.2987 155.807 42.224 155.742 42.168C156.731 41.468 157.604 40.5767 158.36 39.494C159.116 38.402 159.709 37.198 160.138 35.882ZM156.498 30.464L157.296 31.192C156.904 31.3973 156.456 31.5887 155.952 31.766C155.457 31.9433 154.944 32.1067 154.412 32.256C153.88 32.396 153.362 32.5267 152.858 32.648C152.839 32.5453 152.797 32.4193 152.732 32.27C152.667 32.1207 152.606 31.9947 152.55 31.892C153.026 31.7707 153.511 31.6353 154.006 31.486C154.51 31.3367 154.977 31.1733 155.406 30.996C155.845 30.8187 156.209 30.6413 156.498 30.464ZM154.482 31.794H155.448V41.846C155.448 42.154 155.406 42.3873 155.322 42.546C155.247 42.714 155.112 42.8447 154.916 42.938C154.729 43.0127 154.468 43.0593 154.132 43.078C153.805 43.106 153.395 43.12 152.9 43.12C152.881 42.9893 152.839 42.8213 152.774 42.616C152.709 42.42 152.643 42.252 152.578 42.112C152.942 42.1213 153.278 42.126 153.586 42.126C153.894 42.1353 154.104 42.1353 154.216 42.126C154.319 42.1167 154.389 42.0933 154.426 42.056C154.463 42.0187 154.482 41.9487 154.482 41.846V31.794ZM157.548 30.296H158.514C158.505 31.6493 158.519 32.9233 158.556 34.118C158.603 35.3033 158.677 36.3907 158.78 37.38C158.883 38.36 159.009 39.2093 159.158 39.928C159.307 40.6373 159.48 41.188 159.676 41.58C159.881 41.9627 160.105 42.154 160.348 42.154C160.488 42.154 160.591 41.9907 160.656 41.664C160.731 41.3373 160.782 40.8007 160.81 40.054C160.903 40.1567 161.02 40.2593 161.16 40.362C161.3 40.4553 161.431 40.53 161.552 40.586C161.496 41.23 161.421 41.7387 161.328 42.112C161.235 42.4853 161.099 42.7467 160.922 42.896C160.754 43.0547 160.525 43.134 160.236 43.134C159.872 43.134 159.55 42.98 159.27 42.672C158.999 42.364 158.766 41.93 158.57 41.37C158.374 40.8007 158.211 40.124 158.08 39.34C157.949 38.5467 157.847 37.674 157.772 36.722C157.697 35.7607 157.641 34.7387 157.604 33.656C157.576 32.5733 157.557 31.4533 157.548 30.296ZM159.074 30.982L159.872 30.646C160.068 30.87 160.269 31.1173 160.474 31.388C160.679 31.6587 160.866 31.9293 161.034 32.2C161.211 32.4613 161.347 32.69 161.44 32.886L160.614 33.306C160.521 33.0913 160.39 32.8533 160.222 32.592C160.054 32.3213 159.867 32.046 159.662 31.766C159.466 31.486 159.27 31.2247 159.074 30.982ZM149.54 31.262H152.27V39.592H149.54V38.724H151.402V32.144H149.54V31.262ZM149.008 31.262H149.904V40.978H149.008V31.262ZM166.704 38.402C166.433 38.402 166.186 38.3413 165.962 38.22C165.747 38.0987 165.542 37.9633 165.346 37.814C165.159 37.6553 164.973 37.52 164.786 37.408C164.609 37.2867 164.422 37.226 164.226 37.226C164.03 37.226 163.839 37.2913 163.652 37.422C163.475 37.5527 163.307 37.772 163.148 38.08L162.504 37.618C162.765 37.17 163.045 36.848 163.344 36.652C163.652 36.456 163.955 36.358 164.254 36.358C164.534 36.358 164.781 36.4187 164.996 36.54C165.211 36.6613 165.411 36.8013 165.598 36.96C165.794 37.1093 165.981 37.2447 166.158 37.366C166.345 37.478 166.536 37.534 166.732 37.534C166.937 37.534 167.129 37.4687 167.306 37.338C167.483 37.198 167.651 36.9787 167.81 36.68L168.454 37.156C168.202 37.5947 167.922 37.912 167.614 38.108C167.315 38.304 167.012 38.402 166.704 38.402Z" fill="white" fill-opacity="0.8"/>
<rect id="Rectangle 73_2" y="4.76837e-07" width="2" height="8" fill="#4EC6FE"/>
<rect id="Rectangle 75" x="180" y="57" width="2" height="8" transform="rotate(-180 180 57)" fill="#4EC6FE"/>
<rect id="Rectangle 74" y="2" width="2" height="8" transform="rotate(-90 0 2)" fill="#4EC6FE"/>
<rect id="Rectangle 76" x="180" y="55" width="2" height="8" transform="rotate(90 180 55)" fill="#4EC6FE"/>
</g>
<defs>
<filter id="filter0_i_111_6357" x="-9.2" y="-9.2" width="198.4" height="75.4" filterUnits="userSpaceOnUse" color-interpolation-filters="sRGB">
<feFlood flood-opacity="0" result="BackgroundImageFix"/>
<feBlend mode="normal" in="SourceGraphic" in2="BackgroundImageFix" result="shape"/>
<feColorMatrix in="SourceAlpha" type="matrix" values="0 0 0 0 0 0 0 0 0 0 0 0 0 0 0 0 0 0 127 0" result="hardAlpha"/>
<feOffset/>
<feGaussianBlur stdDeviation="2"/>
<feComposite in2="hardAlpha" operator="arithmetic" k2="-1" k3="1"/>
<feColorMatrix type="matrix" values="0 0 0 0 0.285896 0 0 0 0 0.603936 0 0 0 0 0.94391 0 0 0 0.85 0"/>
<feBlend mode="normal" in2="shape" result="effect1_innerShadow_111_6357"/>
</filter>
<clipPath id="bgblur_0_111_6357_clip_path" transform="translate(9.2 9.2)"><rect y="4.76837e-07" width="180" height="57"/>
</clipPath><filter id="filter1_i_111_6357" x="0" y="4.76837e-07" width="188" height="57" filterUnits="userSpaceOnUse" color-interpolation-filters="sRGB">
<feFlood flood-opacity="0" result="BackgroundImageFix"/>
<feBlend mode="normal" in="SourceGraphic" in2="BackgroundImageFix" result="shape"/>
<feColorMatrix in="SourceAlpha" type="matrix" values="0 0 0 0 0 0 0 0 0 0 0 0 0 0 0 0 0 0 127 0" result="hardAlpha"/>
<feOffset/>
<feGaussianBlur stdDeviation="3.25"/>
<feComposite in2="hardAlpha" operator="arithmetic" k2="-1" k3="1"/>
<feColorMatrix type="matrix" values="0 0 0 0 0.285896 0 0 0 0 0.603936 0 0 0 0 0.94391 0 0 0 0.95 0"/>
<feBlend mode="normal" in2="shape" result="effect1_innerShadow_111_6357"/>
</filter>
<linearGradient id="paint0_linear_111_6357" x1="40" y1="6" x2="40" y2="29" gradientUnits="userSpaceOnUse">
<stop stop-color="white"/>
<stop offset="1" stop-color="#51B7FF"/>
</linearGradient>
</defs>
</svg>
